<svg xmlns="http://www.w3.org/2000/svg" version="1.1" xmlns:xlink="http://www.w3.org/1999/xlink" xmlns:svgjs="http://svgjs.dev/svgjs" width="1000" height="1000" viewBox="0 0 1000 1000"><rect width="1000" height="1000" fill="#ffffff"></rect><g transform="matrix(0.7,0,0,0.7,149.57575764957335,309.07858376015736)"><svg viewBox="0 0 396 216" data-background-color="#b19dd0" preserveAspectRatio="xMidYMid meet" height="545" width="1000" xmlns="http://www.w3.org/2000/svg" xmlns:xlink="http://www.w3.org/1999/xlink"><g id="tight-bounds" transform="matrix(1,0,0,1,0.24000004175860568,0.09705349359373372)"><svg viewBox="0 0 395.52 215.8058903406157" height="215.8058903406157" width="395.52"><g><svg viewBox="0 0 395.52 215.8058903406157" height="215.8058903406157" width="395.52"><g transform="matrix(1,0,0,1,0,134.19760165343396)"><svg viewBox="0 0 395.52 81.60828868718174" height="81.60828868718174" width="395.52"><g id="textblocktransform"><svg viewBox="0 0 395.52 81.60828868718174" height="81.60828868718174" width="395.52" id="textblock"><g><svg viewBox="0 0 395.52 81.60828868718174" height="81.60828868718174" width="395.52"><g transform="matrix(1,0,0,1,0,0)"><svg width="395.52" viewBox="2.200000047683716 -36.75 225.82000732421875 46.599998474121094" height="81.60828868718174" data-palette-color="#ffffff"><path d="M8.45 0L2.2 0 2.2-34.05Q2.2-34.5 2.48-34.75 2.75-35 3.55-35L3.55-35 8.4-35Q10.85-35 12.7-34.25 14.55-33.5 15.75-31.73 16.95-29.95 17.57-26.9 18.2-23.85 18.2-19.3L18.2-19.3Q18.2-13.8 17.55-10.08 16.9-6.35 15.63-4.15 14.35-1.95 12.55-0.98 10.75 0 8.45 0L8.45 0ZM6.25-31.25L6.25-3.85 8.5-3.85Q9.5-3.85 10.4-4.4 11.3-4.95 12.03-6.58 12.75-8.2 13.18-11.35 13.6-14.5 13.6-19.7L13.6-19.7Q13.6-23.15 13.28-25.4 12.95-27.65 12.33-28.95 11.7-30.25 10.75-30.75 9.8-31.25 8.55-31.25L8.55-31.25 6.25-31.25ZM21.65 0L21.65 0 21.65-23.15Q21.65-24.1 22-24.48 22.35-24.85 23.25-24.93 24.15-25 25.8-25L25.8-25 25.8-0.8Q25.8-0.4 25.62-0.25 25.45-0.1 24.6-0.05 23.75 0 21.65 0ZM23.6-28.45L23.6-28.45Q22.65-28.5 22.1-29.18 21.55-29.85 21.55-31.6L21.55-31.6Q21.6-32.95 22.15-33.77 22.7-34.6 23.9-34.6L23.9-34.6Q25.05-34.6 25.5-33.95 25.95-33.3 25.9-31.7L25.9-31.7Q25.9-30.2 25.32-29.33 24.75-28.45 23.6-28.45ZM37.24 9.85L37.24 9.85Q33.89 9.85 32.14 9 30.39 8.15 29.79 6.9 29.2 5.65 29.2 4.4L29.2 4.4Q29.2 2.65 30.2 1.18 31.2-0.3 32.72-1.43 34.24-2.55 35.95-3.05L35.95-3.05 37.45-1.85Q36.49-1.45 35.55-0.6 34.59 0.25 33.99 1.3 33.39 2.35 33.39 3.45L33.39 3.45Q33.39 4.2 33.72 4.83 34.05 5.45 34.97 5.78 35.89 6.1 37.59 6.1L37.59 6.1Q40.3 6.1 41.49 4.83 42.7 3.55 42.7 2.25L42.7 2.25Q42.7 1.1 42.2 0.48 41.7-0.15 40.47-0.48 39.24-0.8 37.05-0.95L37.05-0.95Q34.95-1.15 33.34-1.55 31.74-1.95 30.84-2.65 29.95-3.35 29.95-4.35L29.95-4.35Q29.99-5.15 30.49-6.03 30.99-6.9 31.92-7.83 32.84-8.75 34.09-9.6L34.09-9.6 36.59-8.75Q36.3-8.55 35.74-8.03 35.2-7.5 34.74-6.88 34.3-6.25 34.3-5.7L34.3-5.7Q34.3-5.05 35.99-4.75 37.7-4.45 40.2-4.15L40.2-4.15Q42.14-3.85 43.64-3.23 45.14-2.6 45.97-1.45 46.8-0.3 46.8 1.7L46.8 1.7Q46.8 3.85 45.8 5.73 44.8 7.6 42.7 8.72 40.59 9.85 37.24 9.85ZM37.84-7.7L37.84-7.7Q34.84-7.7 33.14-8.85 31.45-10 30.74-11.98 30.04-13.95 30.04-16.35L30.04-16.35Q30.04-19.65 31.09-21.68 32.14-23.7 34.05-24.6 35.95-25.5 38.39-25.5L38.39-25.5Q38.95-25.5 39.77-25.35 40.59-25.2 41.3-24.95L41.3-24.95 42.14-23.15Q43.89-22.45 44.92-20.8 45.95-19.15 45.95-16.45L45.95-16.45Q45.95-13.8 45.12-11.85 44.3-9.9 42.52-8.8 40.74-7.7 37.84-7.7ZM38.05-10.8L38.05-10.8Q39.39-10.8 40.22-11.55 41.05-12.3 41.45-13.78 41.84-15.25 41.84-17.4L41.84-17.4Q41.84-20.15 40.95-21.33 40.05-22.5 38.2-22.5L38.2-22.5Q37.14-22.5 36.24-21.93 35.34-21.35 34.84-20.03 34.34-18.7 34.34-16.45L34.34-16.45Q34.34-14.7 34.62-13.43 34.89-12.15 35.7-11.48 36.49-10.8 38.05-10.8ZM45.84-21.6L45.84-21.6Q45.09-21.6 44.05-21.88 42.99-22.15 41.95-22.48 40.89-22.8 40.22-23.05 39.55-23.3 39.55-23.3L39.55-23.3 39.09-25.1 46.84-25.1Q47-24.85 47.12-24.38 47.25-23.9 47.25-23.2L47.25-23.2Q47.25-22.35 46.87-21.98 46.5-21.6 45.84-21.6ZM50.04 0L50.04 0 50.04-23.15Q50.04-24.1 50.39-24.48 50.74-24.85 51.64-24.93 52.54-25 54.19-25L54.19-25 54.19-0.8Q54.19-0.4 54.02-0.25 53.84-0.1 52.99-0.05 52.14 0 50.04 0ZM51.99-28.45L51.99-28.45Q51.04-28.5 50.49-29.18 49.94-29.85 49.94-31.6L49.94-31.6Q49.99-32.95 50.54-33.77 51.09-34.6 52.29-34.6L52.29-34.6Q53.44-34.6 53.89-33.95 54.34-33.3 54.29-31.7L54.29-31.7Q54.29-30.2 53.72-29.33 53.14-28.45 51.99-28.45ZM65.59 0.5L65.59 0.5Q63.49 0.5 62.47-0.43 61.44-1.35 61.14-3.03 60.84-4.7 60.84-6.95L60.84-6.95 60.84-21.5 57.44-21.5Q57.44-23.1 57.47-23.83 57.49-24.55 57.69-24.78 57.89-25 58.29-25L58.29-25 60.84-25 60.84-32.6Q60.84-33.35 61.17-33.63 61.49-33.9 62.37-33.95 63.24-34 64.89-34L64.89-34 64.89-25 69.99-25Q69.99-23.45 69.97-22.7 69.94-21.95 69.77-21.73 69.59-21.5 69.19-21.5L69.19-21.5 64.89-21.5 64.89-6.95Q64.89-5.9 64.97-4.98 65.04-4.05 65.42-3.53 65.79-3 66.69-3L66.69-3Q67.54-3 68.19-3.18 68.84-3.35 69.59-3.75L69.59-3.75Q69.69-3.35 69.79-2.85 69.89-2.35 69.89-1.7L69.89-1.7Q69.89-0.8 69.22-0.33 68.54 0.15 67.57 0.33 66.59 0.5 65.59 0.5ZM79.34 0.5L79.34 0.5Q77.94 0.5 76.66 0.28 75.39 0.05 74.39-0.73 73.39-1.5 72.79-3 72.19-4.5 72.19-7.1L72.19-7.1Q72.19-9.7 72.74-11.33 73.29-12.95 74.24-13.83 75.19-14.7 76.39-15 77.59-15.3 78.84-15.3L78.84-15.3Q79.64-15.3 80.71-15.15 81.79-15 82.54-14.65L82.54-14.65Q82.54-14.65 82.54-15.35 82.54-16.05 82.54-16.98 82.54-17.9 82.54-18.6L82.54-18.6Q82.54-19.8 82.16-20.43 81.79-21.05 81.11-21.33 80.44-21.6 79.44-21.6L79.44-21.6Q77.49-21.6 75.69-21.25 73.89-20.9 72.79-20.45L72.79-20.45Q72.44-21.05 72.34-21.68 72.24-22.3 72.24-22.8L72.24-22.8Q72.24-23.15 72.36-23.55 72.49-23.95 72.79-24.15L72.79-24.15Q73.44-24.55 75.49-25.03 77.54-25.5 80.39-25.5L80.39-25.5Q83.64-25.5 85.11-24.15 86.59-22.8 86.59-19.4L86.59-19.4 86.59-16.75Q86.59-13.9 86.56-11.03 86.54-8.15 86.49-5.63 86.44-3.1 86.29-1.2L86.29-1.2Q85.29-0.6 83.54-0.05 81.79 0.5 79.34 0.5ZM79.74-2.9L79.74-2.9Q80.54-2.9 81.29-3.15 82.04-3.4 82.34-3.75L82.34-3.75Q82.44-4.55 82.46-5.95 82.49-7.35 82.51-8.9 82.54-10.45 82.54-11.8L82.54-11.8Q82.04-12.05 81.36-12.15 80.69-12.25 80.19-12.25L80.19-12.25Q79.39-12.25 78.71-12.08 78.04-11.9 77.54-11.38 77.04-10.85 76.74-9.85 76.44-8.85 76.44-7.2L76.44-7.2Q76.44-5.85 76.66-5 76.89-4.15 77.34-3.68 77.79-3.2 78.39-3.05 78.99-2.9 79.74-2.9ZM90.74 0L90.74 0 90.74-34.9Q90.74-35.85 91.06-36.23 91.39-36.6 92.29-36.68 93.19-36.75 94.79-36.75L94.79-36.75 94.79-0.8Q94.79-0.4 94.61-0.25 94.44-0.1 93.61-0.05 92.79 0 90.74 0ZM113.43 0L107.13 0 107.13-34.05Q107.13-34.5 107.41-34.75 107.68-35 108.48-35L108.48-35 113.43-35Q114.93-35 116.43-34.68 117.93-34.35 119.13-33.52 120.33-32.7 121.08-31.2 121.83-29.7 121.83-27.25L121.83-27.25Q121.83-24.5 121.08-22.8 120.33-21.1 119.23-20.23 118.13-19.35 117.03-19.2L117.03-19.2Q117.88-19.15 118.91-18.82 119.93-18.5 120.86-17.73 121.78-16.95 122.36-15.55 122.93-14.15 122.93-11.9L122.93-11.9Q122.93-9.4 122.46-7.45 121.98-5.5 121.11-4.1 120.23-2.7 119.03-1.78 117.83-0.85 116.43-0.43 115.03 0 113.43 0L113.43 0ZM111.28-17.2L111.28-3.55 113.53-3.55Q114.48-3.55 115.31-4 116.13-4.45 116.78-5.43 117.43-6.4 117.81-7.9 118.18-9.4 118.18-11.55L118.18-11.55Q118.18-13.5 117.86-14.63 117.53-15.75 116.91-16.32 116.28-16.9 115.43-17.05 114.58-17.2 113.58-17.2L113.58-17.2 111.28-17.2ZM111.28-31.4L111.28-20.7 113.73-20.7Q114.78-20.7 115.61-21.3 116.43-21.9 116.91-23.2 117.38-24.5 117.38-26.5L117.38-26.5Q117.38-28.55 116.86-29.6 116.33-30.65 115.48-31.03 114.63-31.4 113.68-31.4L113.68-31.4 111.28-31.4ZM132.98 0.5L132.98 0.5Q131.08 0.5 129.6 0.03 128.13-0.45 127.13-1.8 126.13-3.15 125.63-5.73 125.13-8.3 125.13-12.5L125.13-12.5Q125.13-19.35 127.33-22.43 129.53-25.5 133.43-25.5L133.43-25.5Q136.08-25.5 137.8-24.4 139.53-23.3 140.38-20.5 141.23-17.7 141.23-12.65L141.23-12.65Q141.23-5.65 139.13-2.58 137.03 0.5 132.98 0.5ZM133.08-2.95L133.08-2.95Q134.18-2.95 135-3.73 135.83-4.5 136.33-6.6 136.83-8.7 136.83-12.6L136.83-12.6Q136.83-16.6 136.43-18.63 136.03-20.65 135.28-21.35 134.53-22.05 133.28-22.05L133.28-22.05Q132.18-22.05 131.33-21.28 130.48-20.5 130-18.4 129.53-16.3 129.53-12.4L129.53-12.4Q129.53-9.35 129.78-7.45 130.03-5.55 130.45-4.58 130.88-3.6 131.58-3.28 132.28-2.95 133.08-2.95ZM151.98 0.5L151.98 0.5Q150.08 0.5 148.6 0.03 147.13-0.45 146.13-1.8 145.13-3.15 144.63-5.73 144.13-8.3 144.13-12.5L144.13-12.5Q144.13-19.35 146.33-22.43 148.53-25.5 152.43-25.5L152.43-25.5Q155.08-25.5 156.8-24.4 158.53-23.3 159.38-20.5 160.23-17.7 160.23-12.65L160.23-12.65Q160.23-5.65 158.13-2.58 156.03 0.5 151.98 0.5ZM152.08-2.95L152.08-2.95Q153.18-2.95 154-3.73 154.83-4.5 155.33-6.6 155.83-8.7 155.83-12.6L155.83-12.6Q155.83-16.6 155.43-18.63 155.03-20.65 154.28-21.35 153.53-22.05 152.28-22.05L152.28-22.05Q151.18-22.05 150.33-21.28 149.48-20.5 149-18.4 148.53-16.3 148.53-12.4L148.53-12.4Q148.53-9.35 148.78-7.45 149.03-5.55 149.45-4.58 149.88-3.6 150.58-3.28 151.28-2.95 152.08-2.95ZM163.87 0L163.87 0 163.87-34.9Q163.87-35.85 164.2-36.23 164.52-36.6 165.42-36.68 166.32-36.75 167.97-36.75L167.97-36.75 167.97-23.2Q169.22-24.25 170.92-24.88 172.62-25.5 174.22-25.5L174.22-25.5Q175.87-25.5 176.8-24.9 177.72-24.3 178.1-23.33 178.47-22.35 178.47-21.2L178.47-21.2Q178.47-19.6 178.02-18.35 177.57-17.1 176.87-16.13 176.17-15.15 175.5-14.48 174.82-13.8 174.32-13.45L174.32-13.45Q175.52-12.95 176.57-11.83 177.62-10.7 178.35-9 179.07-7.3 179.27-5L179.27-5Q179.37-4.1 179.35-3.03 179.32-1.95 179.17-0.8L179.17-0.8Q179.12-0.4 178.92-0.23 178.72-0.05 177.8-0.03 176.87 0 174.57 0L174.57 0Q174.77-1.85 174.77-3.38 174.77-4.9 174.57-6.15L174.57-6.15Q174.32-7.65 173.87-8.7 173.42-9.75 172.82-10.38 172.22-11 171.55-11.23 170.87-11.45 170.17-11.3L170.17-11.3Q169.72-11.2 169.2-10.98 168.67-10.75 168.32-10.55 167.97-10.35 167.97-10.35L167.97-10.35 167.97-0.8Q167.97-0.4 167.8-0.25 167.62-0.1 166.8-0.05 165.97 0 163.87 0ZM167.97-19.45L167.97-13.25Q169.72-14 171.07-14.9 172.42-15.8 173.2-17.03 173.97-18.25 173.97-19.8L173.97-19.8Q173.97-21.85 172.12-21.85L172.12-21.85Q171.07-21.85 170.02-21.28 168.97-20.7 167.97-19.45L167.97-19.45ZM182.67 0L182.67 0 182.67-23.15Q182.67-24.1 183.02-24.48 183.37-24.85 184.27-24.93 185.17-25 186.82-25L186.82-25 186.82-0.8Q186.82-0.4 186.65-0.25 186.47-0.1 185.62-0.05 184.77 0 182.67 0ZM184.62-28.45L184.62-28.45Q183.67-28.5 183.12-29.18 182.57-29.85 182.57-31.6L182.57-31.6Q182.62-32.95 183.17-33.77 183.72-34.6 184.92-34.6L184.92-34.6Q186.07-34.6 186.52-33.95 186.97-33.3 186.92-31.7L186.92-31.7Q186.92-30.2 186.35-29.33 185.77-28.45 184.62-28.45ZM192.02 0L192.02 0 192.02-23.8Q193.02-24.25 194.37-24.63 195.72-25 197.17-25.25 198.62-25.5 199.97-25.5L199.97-25.5Q202.57-25.5 204.12-24.83 205.67-24.15 206.32-22.7 206.97-21.25 206.97-18.8L206.97-18.8 206.97-0.8Q206.97-0.4 206.77-0.25 206.57-0.1 205.72-0.05 204.87 0 202.77 0L202.77 0 202.77-17.6Q202.77-19.95 202.22-20.95 201.67-21.95 199.82-21.95L199.82-21.95Q198.97-21.95 197.92-21.75 196.87-21.55 196.07-21.05L196.07-21.05 196.07-0.8Q196.07-0.4 195.89-0.25 195.72-0.1 194.87-0.05 194.02 0 192.02 0ZM218.02 9.85L218.02 9.85Q214.67 9.85 212.92 9 211.17 8.15 210.57 6.9 209.97 5.65 209.97 4.4L209.97 4.4Q209.97 2.65 210.97 1.18 211.97-0.3 213.49-1.43 215.02-2.55 216.72-3.05L216.72-3.05 218.22-1.85Q217.27-1.45 216.32-0.6 215.37 0.25 214.77 1.3 214.17 2.35 214.17 3.45L214.17 3.45Q214.17 4.2 214.49 4.83 214.82 5.45 215.74 5.78 216.67 6.1 218.37 6.1L218.37 6.1Q221.07 6.1 222.27 4.83 223.47 3.55 223.47 2.25L223.47 2.25Q223.47 1.1 222.97 0.48 222.47-0.15 221.24-0.48 220.02-0.8 217.82-0.95L217.82-0.95Q215.72-1.15 214.12-1.55 212.52-1.95 211.62-2.65 210.72-3.35 210.72-4.35L210.72-4.35Q210.77-5.15 211.27-6.03 211.77-6.9 212.69-7.83 213.62-8.75 214.87-9.6L214.87-9.6 217.37-8.75Q217.07-8.55 216.52-8.03 215.97-7.5 215.52-6.88 215.07-6.25 215.07-5.7L215.07-5.7Q215.07-5.05 216.77-4.75 218.47-4.45 220.97-4.15L220.97-4.15Q222.92-3.85 224.42-3.23 225.92-2.6 226.74-1.45 227.57-0.3 227.57 1.7L227.57 1.7Q227.57 3.85 226.57 5.73 225.57 7.6 223.47 8.72 221.37 9.85 218.02 9.85ZM218.62-7.7L218.62-7.7Q215.62-7.7 213.92-8.85 212.22-10 211.52-11.98 210.82-13.95 210.82-16.35L210.82-16.35Q210.82-19.65 211.87-21.68 212.92-23.7 214.82-24.6 216.72-25.5 219.17-25.5L219.17-25.5Q219.72-25.5 220.54-25.35 221.37-25.2 222.07-24.95L222.07-24.95 222.92-23.15Q224.67-22.45 225.69-20.8 226.72-19.15 226.72-16.45L226.72-16.45Q226.72-13.8 225.89-11.85 225.07-9.9 223.29-8.8 221.52-7.7 218.62-7.7ZM218.82-10.8L218.82-10.8Q220.17-10.8 220.99-11.55 221.82-12.3 222.22-13.78 222.62-15.25 222.62-17.4L222.62-17.4Q222.62-20.15 221.72-21.33 220.82-22.5 218.97-22.5L218.97-22.5Q217.92-22.5 217.02-21.93 216.12-21.35 215.62-20.03 215.12-18.7 215.12-16.45L215.12-16.45Q215.12-14.7 215.39-13.43 215.67-12.15 216.47-11.48 217.27-10.8 218.82-10.8ZM226.62-21.6L226.62-21.6Q225.87-21.6 224.82-21.88 223.77-22.15 222.72-22.48 221.67-22.8 220.99-23.05 220.32-23.3 220.32-23.3L220.32-23.3 219.87-25.1 227.62-25.1Q227.77-24.85 227.89-24.38 228.02-23.9 228.02-23.2L228.02-23.2Q228.02-22.35 227.64-21.98 227.27-21.6 226.62-21.6Z" opacity="1" transform="matrix(1,0,0,1,0,0)" fill="#000000" class="undefined-text-0" data-fill-palette-color="primary" id="text-0"></path></svg></g></svg></g></svg></g></svg></g><g transform="matrix(1,0,0,1,149.92695753339814,0)"><svg viewBox="0 0 95.66608493320373 95.66608493320373" height="95.66608493320373" width="95.66608493320373"><g><svg></svg></g><g id="icon-0"><svg viewBox="0 0 95.66608493320373 95.66608493320373" height="95.66608493320373" width="95.66608493320373"><g><path d="M0 47.833c0-26.417 21.416-47.833 47.833-47.833 26.417 0 47.833 21.416 47.833 47.833 0 26.417-21.416 47.833-47.833 47.833-26.417 0-47.833-21.416-47.833-47.833zM47.833 88.307c22.353 0 40.474-18.121 40.474-40.474 0-22.353-18.121-40.474-40.474-40.473-22.353 0-40.474 18.121-40.473 40.473 0 22.353 18.121 40.474 40.473 40.474z" data-fill-palette-color="accent" fill="#000000" stroke="transparent"></path><ellipse rx="47.35471204193585" ry="47.35471204193585" cx="47.83304246660187" cy="47.83304246660187" fill="#000000" stroke="transparent" stroke-width="0" fill-opacity="1" data-fill-palette-color="accent"></ellipse></g><g transform="matrix(1,0,0,1,26.109930303313828,23.534916860044873)"><svg viewBox="0 0 43.44622432657608 48.59625121311399" height="48.59625121311399" width="43.44622432657608"><g><svg xmlns="http://www.w3.org/2000/svg" xmlns:xlink="http://www.w3.org/1999/xlink" version="1.1" x="0" y="0" viewBox="18.134002685546875 19.195999145507812 56.11164093017578 62.76300048828125" enable-background="new 0 0 100 100" xml:space="preserve" height="48.59625121311399" width="43.44622432657608" class="icon-s-0" data-fill-palette-color="quaternary" id="s-0"><path fill="#ffffff" d="M74.245 21.972c0-1.518-1.231-2.749-2.75-2.749l-36.412-0.027c-1.519 0-2.748 1.231-2.748 2.749v37.964c-0.949-0.263-1.947-0.399-2.979-0.399-6.198 0-11.222 5.024-11.222 11.223 0 6.199 5.024 11.226 11.222 11.226 6.046 0 11.215-4.677 11.215-10.769 0.007-0.073 0.022-30.853 0.022-30.853 0.01-0.791 0.651-1.429 1.445-1.429l-0.001-0.001 22.602 0.01C65.398 38.962 66 39.585 66 40.355l0.005-0.017v17.051c-0.948-0.262-1.946-0.397-2.978-0.397-6.198 0-11.226 5.022-11.226 11.223 0 6.198 5.025 11.226 11.226 11.226 6.045 0 10.974-4.78 11.214-10.769C74.248 68.598 74.245 21.972 74.245 21.972z" data-fill-palette-color="quaternary"></path></svg></g></svg></g></svg></g></svg></g><g></g></svg></g><defs></defs></svg><rect width="395.52" height="215.8058903406157" fill="none" stroke="none" visibility="hidden"></rect></g></svg></g></svg>